<?xml version="1.0" encoding="utf-8"?>
<!-- Generator: Adobe Illustrator 16.0.0, SVG Export Plug-In . SVG Version: 6.00 Build 0)  -->
<!DOCTYPE svg PUBLIC "-//W3C//DTD SVG 1.1//EN" "http://www.w3.org/Graphics/SVG/1.1/DTD/svg11.dtd" [
	<!ENTITY ns_flows "http://ns.adobe.com/Flows/1.0/">
	<!ENTITY ns_extend "http://ns.adobe.com/Extensibility/1.0/">
	<!ENTITY ns_ai "http://ns.adobe.com/AdobeIllustrator/10.0/">
	<!ENTITY ns_graphs "http://ns.adobe.com/Graphs/1.0/">
]>
<svg version="1.1" id="Camada_1" xmlns:x="&ns_extend;" xmlns:i="&ns_ai;" xmlns:graph="&ns_graphs;"
	 xmlns="http://www.w3.org/2000/svg" xmlns:xlink="http://www.w3.org/1999/xlink" xmlns:a="http://ns.adobe.com/AdobeSVGViewerExtensions/3.0/"
	 x="0px" y="0px" width="2240px" height="361.5px" viewBox="0 0 2240 361.5" enable-background="new 0 0 2240 361.5"
	 xml:space="preserve">
<g id="logo">
	<g id="text">
		<path fill="#00BCD4" d="M387.947,64.108c9.144,0,18.287,0,27.43,0c10.605,0,21.213-0.062,31.818,0.044
			c10.24,0.103,20.497,0.348,30.711,1.139c7.047,0.545,14.097,1.328,20.908,3.287c19.723,5.671,36.419,20.36,42.953,40.035
			c3.481,10.483,4.181,21.951,2.737,32.867c-1.413,10.687-5.303,21.003-11.733,29.69c-6.179,8.346-14.547,14.751-23.954,19.072
			c-8.471,3.891-17.702,5.91-26.909,7.096c-7.806,1.005-15.685,1.396-23.551,1.438c2.591,3.346,5.183,6.691,7.773,10.036
			c6.355,8.206,12.711,16.412,19.066,24.617c7.993,10.32,15.986,20.641,23.979,30.961c7.504,9.688,15.008,19.377,22.512,29.065
			c4.888,6.312,9.776,12.622,14.664,18.934c0.803,1.036,1.606,2.073,2.409,3.11c-9.768,0-19.534,0-29.302,0
			c-0.321,0-1.612,0.214-1.833-0.072c-0.29-0.374-0.579-0.747-0.868-1.121c-1.519-1.96-3.037-3.921-4.556-5.882
			c-5.866-7.573-11.732-15.146-17.599-22.72c-7.865-10.154-15.73-20.309-23.596-30.463c-7.738-9.989-15.476-19.979-23.214-29.969
			c-5.482-7.079-10.966-14.158-16.449-21.237c-1.231-1.59-2.463-3.18-3.694-4.77c-0.206-0.266-0.27-0.49-0.606-0.49
			c-2.59,0-5.18,0-7.769,0c-0.38,0-6.208,0-6.208,0c0,0.38,0,0.76,0,1.14c0,2.689,0,5.379,0,8.068c0,10.664,0,21.328,0,31.993
			c0,13.081,0,26.162,0,39.244c0,9.941,0,19.884,0,29.825c0,2.058,0,4.115,0,6.173c0,0.559-0.734,0.279-1.202,0.279
			c-2.509,0-5.018,0-7.525,0c-5.334,0-10.667,0-16,0c-0.392,0-0.394,0.074-0.394-0.271c0-0.416,0-0.833,0-1.249
			c0-4.689,0-9.379,0-14.069c0-8.629,0-17.258,0-25.887c0-11.369,0-22.738,0-34.106c0-12.91,0-25.82,0-38.73
			c0-13.252,0-26.503,0-39.755c0-12.394,0-24.788,0-37.183c0-10.338,0-20.675,0-31.013c0-7.082,0-14.164,0-21.246
			C387.947,69.363,387.947,66.735,387.947,64.108z M413.068,88.718c0,6.588,0,13.177,0,19.765c0,12.844,0,25.687,0,38.531
			c0,8.716,0,17.433,0,26.15c0,0.177-0.119,1.003,0.098,1.005c1.222,0.01,2.444,0.019,3.666,0.029
			c5.729,0.046,11.46,0.091,17.19,0.137c11.547,0.092,23.171,0.515,34.707-0.154c8.858-0.515,18.133-1.472,26.346-5.065
			c9.64-4.217,17.097-12.009,21.035-21.761c4.183-10.357,4.211-22.592-0.216-32.874c-4.17-9.686-11.975-17.642-21.858-21.451
			c-8.047-3.102-17.118-3.697-25.645-4.08c-5.346-0.24-10.692-0.229-16.041-0.229c-11.707,0-23.415,0-35.122,0
			C415.842,88.718,414.455,88.718,413.068,88.718z"/>
		<path fill="#00BCD4" d="M574.055,88.718c0-2.405-0.086-24.609,0.086-24.609c5.102,0,10.202,0,15.304,0c11.122,0,22.243,0,33.365,0
			c13.155,0,26.31,0,39.465,0c11.202,0,22.403,0,33.604,0c5.261,0,10.521,0,15.782,0c0.339,0,0.138,1.569,0.138,1.841
			c0,2.727,0,5.454,0,8.181c0,4.851,0,9.702,0,14.553c0,0.07-23.554,0.034-25.136,0.034c-10.116,0-20.233,0-30.35,0
			c-0.242,0-0.569-0.135-0.569,0.146c0,0.379,0,0.759,0,1.138c0,1.808,0,3.616,0,5.423c0,7.167,0,14.333,0,21.5
			c0,10.672,0,21.344,0,32.016c0,12.703,0,25.406,0,38.109c0,13.26,0,26.52,0,39.779c0,12.342,0,24.684,0,37.025
			c0,9.95,0,19.899,0,29.849c0,6.083,0,12.166,0,18.248c0,1.131,0,2.261,0,3.392c0,0.372-0.818,0.157-1.091,0.157
			c-2.441,0-4.884,0-7.325,0c-5.508,0-11.015,0-16.522,0c-0.385,0-0.696,0.177-0.696-0.224c0-0.423,0-0.847,0-1.271
			c0-5.009,0-10.019,0-15.027c0-9.208,0-18.416,0-27.625c0-11.932,0-23.864,0-35.796c0-13.182,0-26.364,0-39.545
			c0-12.957,0-25.914,0-38.871c0-11.258,0-22.515,0-33.773c0-8.083,0-16.167,0-24.251c0-3.436,0-6.871,0-10.306
			c0-0.194-20.554-0.093-21.979-0.093c-10.861,0-21.724,0-32.585,0C575.049,88.718,574.552,88.718,574.055,88.718z"/>
		<path fill="#00BCD4" d="M867.744,57.785c20.688,0,41.388,3.918,60.112,12.883c18.414,8.816,34.573,22.25,47.142,38.299
			c12.468,15.921,20.864,34.638,24.51,54.526c3.769,20.561,3.132,42.334-2.321,62.536c-5.319,19.709-15.583,37.688-29.345,52.719
			c-13.894,15.175-30.938,27.434-50.237,34.729c-19.582,7.402-40.93,9.608-61.715,7.729c-20.306-1.835-40.035-8.141-57.301-19.053
			c-17.5-11.061-32.675-26.423-43.472-44.09c-10.683-17.481-16.612-37.395-17.903-57.806c-1.451-22.931,2.522-46.037,12.269-66.888
			c9.107-19.487,22.729-36.776,39.994-49.662c18.202-13.584,39.862-22.361,62.431-25.01
			C857.162,58.083,862.453,57.785,867.744,57.785z M868.855,82.224c-23.188,0-45.758,8.09-64.198,22.054
			c-17.218,13.038-30.118,31.408-36.625,52c-6.582,20.825-7.007,44.192-1.049,65.221c5.629,19.864,17.542,37.256,33.106,50.695
			c15.573,13.447,34.63,21.987,55.081,24.402c22.696,2.681,45.918-1.415,66.019-12.381c18.844-10.278,34.057-25.99,43.557-45.254
			c10.221-20.725,13.259-44.754,9.723-67.517c-3.353-21.575-13.466-41.843-28.935-57.286
			c-15.887-15.859-37.069-26.848-59.221-30.515C880.546,82.689,874.701,82.224,868.855,82.224z"/>
		<path fill="#00BCD4" d="M1026.253,268.674c7.121-4.272,14.241-8.545,21.362-12.817c8.821,16.238,21.252,33.708,39.695,39.597
			c19.118,6.104,42.879-2.335,53.103-19.772c5.842-9.967,7.489-22.025,3.837-33.055c-3.014-9.1-9.125-16.752-15.616-23.64
			c-15.547-16.496-34.428-29.109-51.868-43.419c-6.239-5.119-12.488-10.378-17.947-16.342c-6.185-6.756-10.946-15.065-13.756-23.771
			c-6.823-21.145-1.555-45.599,14.744-61.006c16.673-15.76,41.869-20.449,63.519-13.599c9.7,3.069,18.282,8.363,25.775,15.184
			c4.004,3.646,7.713,7.609,11.219,11.733c1.983,2.333,3.901,4.721,5.766,7.149c0.948,1.235,1.883,2.48,2.805,3.735
			c0.282,0.385,0.288,0.28,0.009,0.491c-6.761,5.127-13.521,10.254-20.282,15.381c-6.149-8.147-12.794-16.506-21.035-22.657
			c-8.531-6.367-19.374-8.99-29.906-7.843c-10.17,1.108-19.506,6.415-24.998,15.167c-5.938,9.461-5.699,21.668-1.433,31.737
			c2.003,4.729,5.061,8.935,8.42,12.789c2.202,2.527,4.517,4.904,7.084,7.053c5.957,4.985,12.21,9.63,18.421,14.291
			c17.649,13.244,36.056,26.139,50.194,43.313c6.649,8.078,12.027,17.338,15.158,27.349c3.258,10.417,3.73,21.569,1.453,32.242
			c-4.306,20.186-19.288,37.708-37.66,46.733c-19.251,9.456-43.216,9.481-62.762,0.87c-9.167-4.038-17.276-9.923-24.206-17.127
			c-7.674-7.978-13.972-17.214-19.44-26.809C1027.347,270.651,1026.796,269.665,1026.253,268.674z"/>
		<path fill="#00BCD4" d="M1206.722,64.108c9.468,0,18.935,0,28.401,0c0.526,0,0.488-0.026,0.749,0.394
			c0.415,0.668,0.83,1.337,1.244,2.005c1.729,2.787,3.459,5.574,5.188,8.361c5.885,9.486,11.771,18.973,17.656,28.459
			c6.89,11.105,13.779,22.21,20.669,33.315c5.216,8.407,10.432,16.814,15.647,25.222c1.226,1.974,2.45,3.948,3.675,5.922
			c2.6-4.257,5.199-8.514,7.799-12.771c6.019-9.855,12.037-19.711,18.056-29.567c6.766-11.08,13.532-22.16,20.299-33.241
			c4.843-7.931,9.686-15.862,14.529-23.793c0.865-1.417,1.731-2.835,2.598-4.253c0.17-0.279,2.071-0.053,2.373-0.053
			c2.68,0,5.359,0,8.039,0c6.225,0,12.449,0,18.673,0c-2.122,3.498-4.245,6.996-6.368,10.494
			c-5.256,8.663-10.512,17.326-15.769,25.989c-6.724,11.081-13.446,22.161-20.17,33.241c-6.523,10.751-13.046,21.501-19.569,32.252
			c-4.656,7.674-9.313,15.348-13.969,23.021c-1.107,1.825-2.215,3.649-3.322,5.474c-0.44,0.727-0.472,0.9-0.472,1.763
			c0,7.089,0,14.179,0,21.268c0,12.406,0,24.813,0,37.22c0,12.484,0,24.97,0,37.455c0,7.325,0,14.649,0,21.975
			c0,0.411,0,0.822,0,1.233c0,0.015-3.586,0.007-3.797,0.007c-6.013,0-12.025,0-18.038,0c-0.209,0-2.945,0.053-2.945-0.044
			c0-0.493,0-0.986,0-1.48c0-2.825,0-5.65,0-8.476c0-10.712,0-21.424,0-32.137c0-13.096,0-26.191,0-39.287
			c0-10.241,0-20.482,0-30.723c0-2.413,0-4.825,0-7.238c0-0.81-0.151-1.002-0.591-1.712c-3.233-5.229-6.468-10.458-9.702-15.688
			c-5.919-9.57-11.838-19.141-17.758-28.711c-6.931-11.207-13.861-22.413-20.793-33.62c-6.271-10.138-12.541-20.276-18.812-30.415
			c-3.937-6.365-7.873-12.73-11.81-19.096C1207.862,65.953,1207.292,65.031,1206.722,64.108z"/>
		<path fill="#00BCD4" d="M1407.698,268.674c7.121-4.272,14.241-8.545,21.362-12.817c8.821,16.238,21.252,33.708,39.695,39.597
			c19.118,6.104,42.879-2.335,53.103-19.772c5.842-9.967,7.489-22.025,3.837-33.055c-3.014-9.1-9.125-16.752-15.616-23.64
			c-15.547-16.496-34.428-29.109-51.868-43.419c-6.239-5.119-12.488-10.378-17.947-16.342c-6.185-6.756-10.946-15.065-13.756-23.771
			c-6.823-21.145-1.555-45.599,14.744-61.006c16.673-15.76,41.869-20.449,63.519-13.599c9.7,3.069,18.282,8.363,25.775,15.184
			c4.004,3.646,7.713,7.609,11.219,11.733c1.983,2.333,3.901,4.721,5.766,7.149c0.948,1.235,1.883,2.48,2.805,3.735
			c0.282,0.385,0.288,0.28,0.009,0.491c-6.761,5.127-13.521,10.254-20.282,15.381c-6.149-8.147-12.794-16.506-21.035-22.657
			c-8.531-6.367-19.374-8.99-29.906-7.843c-10.17,1.108-19.506,6.415-24.998,15.167c-5.938,9.461-5.699,21.668-1.433,31.737
			c2.003,4.729,5.061,8.935,8.42,12.789c2.202,2.527,4.517,4.904,7.084,7.053c5.957,4.985,12.21,9.63,18.421,14.291
			c17.649,13.244,36.056,26.139,50.194,43.313c6.649,8.078,12.027,17.338,15.158,27.349c3.258,10.417,3.73,21.569,1.453,32.242
			c-4.306,20.186-19.288,37.708-37.66,46.733c-19.251,9.456-43.216,9.481-62.762,0.87c-9.167-4.038-17.276-9.923-24.206-17.127
			c-7.674-7.978-13.972-17.214-19.44-26.809C1408.792,270.651,1408.241,269.665,1407.698,268.674z"/>
		<path fill="#00BCD4" d="M1583.04,88.718c0-2.405-0.086-24.609,0.086-24.609c5.102,0,10.202,0,15.304,0c11.121,0,22.243,0,33.365,0
			c13.155,0,26.311,0,39.465,0c11.202,0,22.403,0,33.604,0c5.261,0,10.521,0,15.782,0c0.339,0,0.138,1.569,0.138,1.841
			c0,2.727,0,5.454,0,8.181c0,4.851,0,9.702,0,14.553c0,0.07-23.554,0.034-25.136,0.034c-10.117,0-20.233,0-30.35,0
			c-0.242,0-0.569-0.135-0.569,0.146c0,0.379,0,0.759,0,1.138c0,1.808,0,3.616,0,5.423c0,7.167,0,14.333,0,21.5
			c0,10.672,0,21.344,0,32.016c0,12.703,0,25.406,0,38.109c0,13.26,0,26.52,0,39.779c0,12.342,0,24.684,0,37.025
			c0,9.95,0,19.899,0,29.849c0,6.083,0,12.166,0,18.248c0,1.131,0,2.261,0,3.392c0,0.372-0.818,0.157-1.091,0.157
			c-2.441,0-4.883,0-7.325,0c-5.507,0-11.015,0-16.522,0c-0.385,0-0.696,0.177-0.696-0.224c0-0.423,0-0.847,0-1.271
			c0-5.009,0-10.019,0-15.027c0-9.208,0-18.416,0-27.625c0-11.932,0-23.864,0-35.796c0-13.182,0-26.364,0-39.545
			c0-12.957,0-25.914,0-38.871c0-11.258,0-22.515,0-33.773c0-8.083,0-16.167,0-24.251c0-3.436,0-6.871,0-10.306
			c0-0.194-20.554-0.093-21.979-0.093c-10.861,0-21.724,0-32.585,0C1584.034,88.718,1583.537,88.718,1583.04,88.718z"/>
		<path fill="#00BCD4" d="M1757.186,64.108c4.323,0,8.646,0,12.97,0c10.536,0,21.073,0,31.609,0c13.101,0,26.201,0,39.301,0
			c12.015,0,24.029,0,36.044,0c7.279,0,14.559,0,21.838,0c0.652,0,1.305,0,1.957,0c0.523,0,0.349,0.169,0.349,0.726
			c0,5.574,0,11.148,0,16.722c0,2.214,0,4.427,0,6.641c0,0.591,0.046,0.521-0.504,0.521c-2.242,0-4.485,0-6.728,0
			c-10.08,0-20.16,0-30.24,0c-13.086,0-26.173,0-39.26,0c-10.748,0-21.496,0-32.244,0c-2.827,0-5.654,0-8.48,0
			c-0.484,0-0.969,0-1.453,0c-0.082,0-0.036,0.986-0.036,1.085c0,9.178,0,18.355,0,27.533c0,12.506,0,25.012,0,37.517
			c0,3.685,0,7.369,0,11.053c0,0.221-0.168,1.429,0,1.596c0.116,0.115,0.935,0,1.087,0c7.275,0,14.551,0,21.826,0
			c12.516,0,25.03,0,37.546,0c12.311,0,24.622,0,36.933,0c6.663,0,13.326,0,19.989,0c0.532,0,0.539-0.104,0.539,0.459
			c0,2.173,0,4.347,0,6.52c0,5.61,0,11.22,0,16.83c0,0.623,0.191,0.801-0.397,0.801c-0.773,0-1.546,0-2.319,0
			c-3.311,0-6.622,0-9.933,0c-11.301,0-22.602,0-33.902,0c-13.002,0-26.003,0-39.005,0c-9.259,0-18.519,0-27.777,0
			c-1.525,0-3.05,0-4.575,0c-0.023,0-0.011,4.217-0.011,4.455c0,10.016,0,20.031,0,30.047c0,12.948,0,25.896,0,38.846
			c0,8.112,0,16.225,0,24.337c0,0.063-0.008,1.095,0.007,1.095c0.419,0,0.838,0,1.257,0c2.735,0,5.47,0,8.205,0
			c10.68,0,21.359,0,32.039,0c13.089,0,26.177,0,39.266,0c10.054,0,20.106,0,30.16,0c2.188,0,4.375,0,6.563,0
			c0.585,0,0.424,0.094,0.424,0.726c0,2.33,0,4.66,0,6.991c0,5.457,0,10.915,0,16.372c0,0.549,0.079,0.521-0.422,0.521
			c-0.69,0-1.381,0-2.071,0c-7.421,0-14.843,0-22.265,0c-12.1,0-24.199,0-36.299,0c-13.071,0-26.144,0-39.216,0
			c-10.34,0-20.68,0-31.019,0c-0.637,0-11.751,0.028-11.751-0.025c0-2.903,0-5.807,0-8.71c0-7.292,0-14.585,0-21.877
			c0-10.482,0-20.964,0-31.446c0-12.473,0-24.945,0-37.417c0-13.264,0-26.528,0-39.792c0-12.856,0-25.713,0-38.569
			c0-11.25,0-22.499,0-33.749c0-8.443,0-16.887,0-25.331c0-4.438,0-8.876,0-13.314C1757.186,64.882,1757.186,64.496,1757.186,64.108
			z"/>
		<path fill="#00BCD4" d="M1933.211,315.5c0.369-2.577,0.738-5.154,1.107-7.73c0.995-6.955,1.991-13.91,2.986-20.866
			c1.457-10.169,2.912-20.339,4.369-30.509c1.749-12.221,3.499-24.441,5.248-36.662c1.877-13.108,3.754-26.215,5.631-39.323
			c1.837-12.832,3.674-25.663,5.512-38.495c1.631-11.392,3.262-22.783,4.893-34.174c1.258-8.788,2.517-17.576,3.774-26.364
			c0.719-5.021,1.438-10.041,2.157-15.062c0.104-0.734,0.21-1.468,0.314-2.202c-0.007,0.047,3.986-0.203,4.104,0.035
			c0.131,0.263,0.261,0.525,0.391,0.789c2.008,4.052,4.017,8.105,6.024,12.158c3.911,7.894,7.821,15.788,11.733,23.682
			c5.179,10.454,10.357,20.908,15.537,31.361c5.813,11.732,11.625,23.464,17.438,35.196c5.812,11.729,11.623,23.458,17.434,35.187
			c5.174,10.444,10.349,20.888,15.523,31.333c3.903,7.878,7.807,15.756,11.709,23.634c1.997,4.03,3.994,8.061,5.99,12.091
			c0.133,0.269,0.266,0.536,0.398,0.804c1.257-2.562,2.514-5.123,3.771-7.685c3.349-6.825,6.698-13.65,10.047-20.476
			c4.81-9.801,9.618-19.602,14.428-29.403c5.637-11.488,11.274-22.977,16.911-34.466c5.833-11.888,11.666-23.776,17.5-35.664
			c5.396-10.999,10.793-21.998,16.19-32.997c4.329-8.822,8.657-17.644,12.986-26.466c2.628-5.357,5.257-10.713,7.886-16.07
			c0.479-0.977,0.958-1.953,1.437-2.929c0.012-0.024,0.04-0.119,0.071-0.119c1.244,0,2.489,0,3.734,0c0.377,0,0.29,0.069,0.34,0.414
			c0.527,3.664,1.055,7.327,1.582,10.991c1.119,7.78,2.238,15.56,3.358,23.339c1.544,10.733,3.089,21.465,4.634,32.198
			c1.802,12.522,3.604,25.043,5.405,37.565c1.892,13.147,3.784,26.294,5.676,39.441c1.814,12.609,3.629,25.218,5.443,37.827
			c1.569,10.907,3.14,21.813,4.709,32.721c1.157,8.042,2.314,16.084,3.472,24.125c0.578,4.013,1.155,8.025,1.732,12.038
			c0.035,0.244,0.07,0.488,0.105,0.732c-4.604,0-9.209,0-13.813,0c-0.77,0-10.783,0.291-10.832-0.064
			c-0.551-3.987-1.102-7.975-1.652-11.961c-1.284-9.293-2.568-18.585-3.852-27.877c-1.702-12.321-3.404-24.643-5.107-36.963
			c-1.806-13.072-3.611-26.145-5.418-39.217c-1.595-11.546-3.19-23.093-4.785-34.64c-1.07-7.744-2.141-15.488-3.21-23.232
			c-0.269-1.943-0.537-3.887-0.806-5.831c-1.431,2.894-2.861,5.788-4.292,8.681c-3.735,7.556-7.472,15.112-11.207,22.668
			c-5.206,10.53-10.413,21.061-15.619,31.591c-5.843,11.817-11.685,23.635-17.527,35.452c-5.645,11.417-11.289,22.833-16.934,34.25
			c-4.612,9.328-9.224,18.656-13.835,27.984c-2.745,5.552-5.49,11.104-8.235,16.655c-0.411,0.832-0.823,1.665-1.234,2.497
			c-0.084,0.17-2.128,0.006-2.339,0.006c-1.322,0-2.643,0-3.965,0c-0.219,0-0.273-0.308-0.364-0.489
			c-2.028-4.086-4.057-8.171-6.085-12.257c-4.142-8.341-8.283-16.681-12.424-25.021c-5.43-10.936-10.859-21.87-16.289-32.805
			c-5.893-11.869-11.786-23.738-17.68-35.607c-5.532-11.143-11.064-22.285-16.597-33.428c-4.348-8.756-8.694-17.511-13.042-26.267
			c-2.338-4.708-4.676-9.417-7.014-14.125c-0.19-0.384-0.381-0.769-0.572-1.153c-0.474,3.476-0.947,6.951-1.422,10.426
			c-1.217,8.93-2.434,17.859-3.651,26.789c-1.655,12.139-3.31,24.279-4.965,36.418c-1.786,13.104-3.573,26.209-5.359,39.313
			c-1.612,11.825-3.224,23.65-4.836,35.476c-1.132,8.301-2.263,16.602-3.395,24.903c-0.29,2.128-0.58,4.255-0.87,6.383
			c-0.06,0.436-0.119,0.871-0.179,1.306c-0.048,0.354-1.273,0.139-1.549,0.139C1948.369,315.5,1940.79,315.5,1933.211,315.5z"/>
	</g>
	<path id="round" fill="none" stroke="#00BCD4" stroke-width="40" stroke-miterlimit="10" d="M325.988,178.364
		c0,24.562-6.064,49.002-17.658,70.661c-10.943,20.443-26.631,38.232-45.526,51.671c-19.511,13.877-42.316,22.95-66.034,26.238
		c-24.756,3.432-50.293,0.649-73.684-8.173c-21.847-8.24-41.623-21.627-57.444-38.794c-15.931-17.286-27.724-38.309-34.08-60.947
		c-6.796-24.206-7.382-50.096-1.713-74.588c5.354-23.131,16.277-44.819,31.612-62.94c14.964-17.682,34.029-31.841,55.315-40.989
		c22.787-9.792,47.926-13.738,72.623-11.543c24.092,2.142,47.489,10.172,67.815,23.281c19.452,12.544,35.928,29.62,47.761,49.513
		c12.541,21.081,19.732,45.149,20.854,69.65C325.935,173.723,325.988,176.043,325.988,178.364
		C325.988,196.61,325.988,167.663,325.988,178.364z"/>
	<g id="teeth">
		<g id="retangles">
			<path id="item_1_" fill="#00BCD4" d="M130.884,142.52c6.662,0,13.324,0,19.986,0c3.331,0,6.662,0,9.993,0c1.53,0,3.06,0,4.589,0
				c0.185,0,1.213-0.154,1.28,0.148c0.142,0.646-0.004,1.476-0.004,2.138c0,13.258,0,26.516,0,39.773c0,6.582,0,13.164,0,19.745
				c0,3.283,0,6.565,0,9.848c0,0.02-1.091,0.022-1.149,0.022c-5.869,0.048-11.738,0.024-17.607,0.021
				c-2.746-0.001-5.491-0.004-8.237-0.006c-0.628,0-1.256-0.001-1.884-0.001c-1.507,0-3.014,0-4.52,0
				c-0.657,0-1.319-0.029-1.973,0.03c-0.681,0.062-0.474-0.746-0.474-1.217c0-13.176,0-26.352,0-39.527
				C130.884,163.169,130.884,152.844,130.884,142.52C140.877,142.52,130.884,142.567,130.884,142.52z"/>
			<path id="item" fill="#00BCD4" d="M185.247,142.52c6.662,0,13.324,0,19.986,0c3.331,0,6.662,0,9.993,0c1.53,0,3.06,0,4.589,0
				c0.185,0,1.213-0.154,1.28,0.148c0.142,0.646-0.004,1.476-0.004,2.138c0,13.258,0,26.516,0,39.773c0,6.582,0,13.164,0,19.745
				c0,3.283,0,6.565,0,9.848c0,0.02-1.091,0.022-1.149,0.022c-5.869,0.048-11.739,0.024-17.607,0.021
				c-2.746-0.001-5.491-0.004-8.237-0.006c-0.628,0-1.256-0.001-1.884-0.001c-1.507,0-3.014,0-4.521,0
				c-0.656,0-1.318-0.029-1.973,0.03c-0.681,0.062-0.474-0.746-0.474-1.217c0-13.176,0-26.352,0-39.527
				C185.247,163.169,185.247,152.844,185.247,142.52C195.24,142.52,185.247,142.567,185.247,142.52z"/>
		</g>
		<path id="line" fill="#00BCD4" d="M322.872,181.818c-26.37,0-52.741,0-79.111,0c-26.59,0-53.181,0-79.772,0
			c-26.472,0-52.943,0-79.415,0c-13.21,0-26.42,0-39.631,0c-3.243,0-6.486,0-9.729,0c-0.588,0-2.952,0.377-3.073-0.347
			c-0.115-0.681,0.07-1.368,0.063-2.05c-0.013-1.407-0.079-2.829,0.013-4.234c0.041-0.615,2.138-0.28,2.674-0.28
			c1.672,0,3.345,0,5.017,0c26.495,0,52.99,0,79.484,0c26.554,0,53.107,0,79.661,0c26.498,0,52.995,0,79.492,0
			c10.479,0,20.959,0,31.438,0c2.622,0,5.244,0,7.866,0c1.281,0,2.562,0,3.843,0c0.607,0,1.158-0.294,1.171,0.376
			C322.908,177.461,322.872,179.641,322.872,181.818C320.575,181.818,322.872,181.141,322.872,181.818z"/>
	</g>
</g>
</svg>
